<?xml version="1.0" encoding="UTF-8"?>
<svg id="Layer_1" data-name="Layer 1" xmlns="http://www.w3.org/2000/svg" viewBox="0 0 525.08 395.88">
  <defs>
    <style>
      .cls-1 {
        stroke: #fff;
        stroke-miterlimit: 10;
      }
    </style>
  </defs>
  <path class="cls-1" d="M291.53,108.68c3.22-62.25-15.04-105.04-36-108-15.12-2.14-38.42,15.5-47.09,37.67-1.23,3.15-4.29,11.81-3.91,21.33,1.76,43.79,73.99,51.41,92,100,14.52,39.17-8.56,98.65-48,112-26.98,9.14-58.05-4.52-76-22-58.08-56.57-21.94-195.27,15-201,37.23-5.78,105.86,118.75,76,157-16.19,20.74-67.25,23.66-92-5-28.15-32.59-7.96-89.41,8-92,18.3-2.97,53.67,61.67,64,123,4.94,29.31,1.43,41.74,13,61,20.15,33.57,67.08,56.29,87,43,25.05-16.72,20.16-98.91-28-140-46.57-39.74-118.83-28.44-159,4-16.71,13.49-45.01,44.48-36,69,9.86,26.84,62.79,41.44,90,24,60.34-38.67,22.12-252.79-34-262-33.96-5.58-82.81,62.53-69,89,23.33,44.71,220.09-39.45,254,19,11.72,20.2.82,51.95-8.32,78.56-10.8,31.46-27.89,53.2-45.68,75.44-35.78,44.75-57.37,53.23-54,62,8.49,22.13,158.92,2.42,164-36,2.61-19.73-33.61-40.51-52.04-47.95-11.24-4.54-44.44-17.94-75.96-.05-16.89,9.59-37.45,30.52-36,54,2.36,38.09,61.88,70.23,102,56,50.72-17.99,63.98-107.81,36-135-40.4-39.25-184.27,35.03-179,65,6.75,38.33,258.37,9.31,261,34,2.37,22.31-200.4,70.34-212,42-10.28-25.12,143.95-75.3,143-147C402.99,123.63-3.78,42.43.53,26.68c3.14-11.47,219.3,30.06,452.44,47.59,52.7,3.96,70.52,4.01,71.56-.59,3.8-16.8-217.36-87.77-229-63-7.5,15.96,78.67,57.43,70,86-14.16,46.65-260.98-7.77-278,45-6.13,19.01,20.54,42.73,22,44,82.54,71.85,269.77-70.69,304-29,34,41.41-94.16,251.01-187,233-31.73-6.16-57.48-38.54-52-52,9.99-24.54,123.43,14.91,247-28,16.78-5.83,34.9-13.57,44-31,18.64-35.7-13.27-87.63-35-123-9.01-14.67-36.24-58.98-45-55-11.67,5.31,2.1,99.71,48,116,31.16,11.05,57.31-20.92,76-7,18.29,13.62,17.4,62.21-10,89-26.51,25.92-64.94,18.82-69,18"/>
</svg>